{"title":"The Lego Movie 2014 CAM NEW SOURCE XViD - LEGOHEAD","uid":9638404,"size":1541576712,"categoryP":"video","categoryS":"movies","magnet":"?xt=urn:btih:dd17f6d8fd303e11cded0708ad217de693ff941d&amp;dn=The+Lego+Movie+2014+CAM+NEW+SOURCE+XViD+-+LEGOHEAD&amp;tr=udp%3A%2F%2Ftracker.openbittorrent.com%3A80&amp;tr=udp%3A%2F%2Fopen.demonii.com%3A1337&amp;tr=udp%3A%2F%2Ftracker.coppersurfer.tk%3A6969&amp;tr=udp%3A%2F%2Fexodus.desync.com%3A6969","seeders":1,"leechers":0,"uploader":null,"files":3,"time":1392871903,"description":"Search More Games Porn Movies Latest Torrents Only on\n  &lt;a href=&quot;\nhttp://www.torrentsplash.com&quot; rel=&quot;nofollow&quot; target=&quot;_NEW&quot;&gt;\nhttp://www.torrentsplash.com&lt;/a&gt;\n\n\n\nThe Lego Movie 2014 CAM NEW SOURCE XViD - LEGOHEAD\n\nSORS - New Vobs / Old vobs\n\nVideo\nID: 0\nFormat: MPEG-4 Visual\nFormat profile: Advanced Simple@L5\nFormat settings, BVOP: 2\nFormat settings, QPel: No\nFormat settings, GMC: No warppoints\nFormat settings, Matrix: Default (MPEG)\nMuxing mode: Packed bitstream\nCodec ID: XVID\nCodec ID/Hint: XviD\nDuration: 1h 32mn\nBit rate: 2 041 Kbps\nWidth: 720 pixels\nHeight: 368 pixels\nDisplay aspect ratio: 1.957\nFrame rate: 29.970 fps\nColor space: YUV\nChroma subsampling: 4:2:0\nBit depth: 8 bits\nScan type: Progressive\nCompression mode: Lossy\nBits/(Pixel*Frame): 0.257\nStream size: 1.32 GiB (94%)\nWriting library: XviD 64\n\nAudio\nID: 1\nFormat: MPEG Audio\nFormat version: Version 1\nFormat profile: Layer 3\nMode: Joint stereo\nMode extension: MS Stereo\nCodec ID: 55\nCodec ID/Hint: MP3\nDuration: 1h 32mn\nBit rate mode: Constant\nBit rate: 128 Kbps\nChannel(s): 2 channels\nSampling rate: 44.1 KHz\nCompression mode: Lossy\nStream size: 84.6 MiB (6%)\nAlignment: Split accross interleaves\nInterleave, duration: 33 ms (1.00 video frame)\nInterleave, preload duration: 500 ms\nNOTES: Ok new source is alot better,however was missing first 4mins,well just under ...also had ya normal cam issues\nFirst off i stripped and cleaned audio and resaved,then cleaned the video changing this and that\nThen to make it complete i used the first 3mins 48 secs off the old release but cleaned the audio and video and also resyncd it as it was oos\n\nThen dropped all parts into the blender for 5mins and out came a nice new complete file  ...only cost 49.99 at amazon if ya want one ;-) \n\nscreens:\n\n &lt;a href=&quot;\nhttp://image.bayimg.com/afea08392fe966315662bfe673982e98f3d07959.jpg&quot; rel=&quot;nofollow&quot; target=&quot;_NEW&quot;&gt;\nhttp://image.bayimg.com/afea08392fe966315662bfe673982e98f3d07959.jpg&lt;/a&gt;\n &lt;a href=&quot;\nhttp://image.bayimg.com/03510ea0c4d00ddac8d2ad2c112b16a92224c7e0.jpg&quot; rel=&quot;nofollow&quot; target=&quot;_NEW&quot;&gt;\nhttp://image.bayimg.com/03510ea0c4d00ddac8d2ad2c112b16a92224c7e0.jpg&lt;/a&gt;\n\n\nSearch More Games Porn Movies Latest Torrents Only on\n  &lt;a href=&quot;\nhttp://www.torrentsplash.com&quot; rel=&quot;nofollow&quot; target=&quot;_NEW&quot;&gt;\nhttp://www.torrentsplash.com&lt;/a&gt;\n","torrent":{"xt":"urn:btih:dd17f6d8fd303e11cded0708ad217de693ff941d","amp;dn":"The+Lego+Movie+2014+CAM+NEW+SOURCE+XViD+-+LEGOHEAD","amp;tr":["udp%3A%2F%2Ftracker.openbittorrent.com%3A80","udp%3A%2F%2Fopen.demonii.com%3A1337","udp%3A%2F%2Ftracker.coppersurfer.tk%3A6969","udp%3A%2F%2Fexodus.desync.com%3A6969"],"infoHash":"dd17f6d8fd303e11cded0708ad217de693ff941d","infoHashBuffer":{"type":"Buffer","data":[221,23,246,216,253,48,62,17,205,237,7,8,173,33,125,230,147,255,148,29]},"announce":[],"urlList":[]}}